<?xml version="1.0" encoding="UTF-8"?>
<svg version="1.1" xmlns="http://www.w3.org/2000/svg" width="180" height="180">
<path d="M0 0 C59.4 0 118.8 0 180 0 C180 59.4 180 118.8 180 180 C120.6 180 61.2 180 0 180 C0 120.6 0 61.2 0 0 Z " fill="#FDFEFE" transform="translate(0,0)"/>
<path d="M0 0 C8.35944915 5.73483648 13.27954919 12.9563673 17.82421875 21.9375 C18.18773438 22.64261719 18.55125 23.34773438 18.92578125 24.07421875 C22.94643293 33.63735757 22.0688434 47.23581234 18.82421875 56.9375 C17.79593505 59.34632579 16.69138917 61.72408457 15.51171875 64.0625 C14.93808594 65.22007813 14.36445312 66.37765625 13.7734375 67.5703125 C7.09492133 79.10714805 -3.7562649 85.79173022 -16.17578125 89.9375 C-28.37459918 93.01681326 -41.08333689 91.13791461 -52.1484375 85.39453125 C-64.55996068 77.93395955 -72.79828537 67.76117121 -77.17578125 53.9375 C-80.30174604 38.37325574 -77.63695098 25.22792227 -69.17578125 11.9375 C-52.78650329 -10.95928539 -22.98257339 -14.12501309 0 0 Z " fill="#015DAA" transform="translate(104.17578125,32.0625)"/>
<path d="M0 0 C20.39835604 -1.04161818 39.1749002 5.16521498 54.61328125 18.734375 C68.03050063 31.47085166 78.40434488 48.87439514 79.29296875 67.73046875 C79.87782299 90.62553357 73.3949171 110.64628126 57.50390625 127.5859375 C41.87903721 142.65016381 22.81629912 149.59296893 1.31640625 149.203125 C-16.84018218 148.5335319 -32.02909192 141.52069823 -46 130 C-46.94552734 129.22462891 -46.94552734 129.22462891 -47.91015625 128.43359375 C-56.87603397 120.28465249 -63.11715884 108.31353327 -67 97 C-67.31839844 96.09378906 -67.63679688 95.18757813 -67.96484375 94.25390625 C-70.75665607 84.97788466 -70.27060702 75.58149286 -70 66 C-69.34 66 -68.68 66 -68 66 C-67.63648438 67.2684375 -67.63648438 67.2684375 -67.265625 68.5625 C-62.14524082 85.89303108 -54.24790416 97.2059486 -38.390625 106.53515625 C-25.81696511 113.23199685 -10.23809135 114.26773984 3.48217773 110.56347656 C19.57156862 105.57216401 30.44693594 96.11463908 38.3046875 81.4140625 C45.21117031 67.50561554 46.1438543 52.37259914 41.26879883 37.67089844 C39.04145284 31.53332284 35.9003618 26.23283834 32 21 C31.57460937 20.36964844 31.14921875 19.73929688 30.7109375 19.08984375 C23.60782987 9.52461599 11.18044137 3.92821083 0 1 C0 0.67 0 0.34 0 0 Z " fill="#72D1D0" transform="translate(88,17)"/>
</svg>
