<?xml version="1.0" encoding="UTF-8"?>
<svg version="1.1" xmlns="http://www.w3.org/2000/svg" width="290" height="290">
<path d="M0 0 C1.75741649 -0.00299811 3.51483232 -0.00640213 5.27224731 -0.01017761 C10.01426602 -0.01895576 14.75626664 -0.02135311 19.49829268 -0.0219934 C22.4701142 -0.02270746 25.44193121 -0.02484849 28.4137516 -0.02749062 C38.80757562 -0.03672381 49.20138686 -0.04082808 59.59521484 -0.04003906 C69.24155865 -0.03943893 78.88784642 -0.04998344 88.53417605 -0.06578273 C96.85139036 -0.07891344 105.16858648 -0.08422064 113.48581105 -0.08358365 C118.43760963 -0.08333028 123.38935834 -0.08609208 128.34114647 -0.0967617 C133.00421697 -0.10653628 137.66719088 -0.10645866 142.33026505 -0.09924507 C144.02760906 -0.09821073 145.72495939 -0.10049238 147.42229271 -0.10660553 C155.88028955 -0.13506009 164.22622753 0.08109426 172.6386261 1.01591492 C173.338583 1.09082777 174.03853991 1.16574062 174.75970763 1.24292356 C181.76247763 2.11444549 185.79873627 4.58437172 190.60473633 9.52026367 C195.36471802 16.92467963 196.44253785 23.66040697 196.43267822 32.27201843 C196.43564934 33.08594537 196.43862047 33.89987231 196.44168162 34.7384637 C196.45034729 37.46351099 196.45187507 40.18851424 196.45336914 42.91357422 C196.45799885 44.86850579 196.46302372 46.82343646 196.46841431 48.77836609 C196.48152622 54.08848911 196.487981 59.3985995 196.49242496 64.70873618 C196.49535785 68.02804785 196.49946309 71.34735609 196.50392914 74.66666603 C196.51760135 85.05706347 196.52726916 95.44745304 196.53113103 105.83785886 C196.53561018 117.82251585 196.55315265 129.8070587 196.58213162 141.79168099 C196.60376623 151.06150282 196.61383627 160.33129257 196.61517215 169.60113937 C196.61621896 175.13467252 196.62210055 180.66809833 196.63999176 186.20160484 C196.65650298 191.40958184 196.65861309 196.61737117 196.64985275 201.82536507 C196.64908399 203.73205443 196.65340374 205.63875401 196.663311 207.54541779 C196.77549611 230.4894446 196.77549611 230.4894446 189.29223633 240.14526367 C188.63223633 240.80526367 187.97223633 241.46526367 187.29223633 242.14526367 C186.30223633 242.14526367 185.31223633 242.14526367 184.29223633 242.14526367 C184.29223633 242.80526367 184.29223633 243.46526367 184.29223633 244.14526367 C171.60150951 249.09249616 158.01330215 248.29237845 144.59106445 248.2746582 C142.84671492 248.27601626 141.10236568 248.27779846 139.35801697 248.27996826 C134.65764336 248.28449445 129.95729191 248.28277299 125.25691795 248.27958918 C120.31560587 248.27704055 115.37429556 248.27941005 110.4329834 248.28097534 C102.13818016 248.28278976 93.84338586 248.28040984 85.54858398 248.27563477 C75.98679339 248.27019355 66.42502412 248.27195673 56.86323404 248.27746117 C48.62334464 248.28201305 40.38346163 248.28263271 32.14357138 248.2800225 C27.23552698 248.27847113 22.32749259 248.27823451 17.41944885 248.28155899 C12.80318272 248.28446796 8.18694384 248.28240692 3.57068062 248.27666473 C1.88617053 248.27535326 0.20165811 248.27570348 -1.48285103 248.2779274 C-28.02504709 248.30971251 -28.02504709 248.30971251 -38.70776367 244.14526367 C-38.70776367 243.48526367 -38.70776367 242.82526367 -38.70776367 242.14526367 C-39.63588867 241.77401367 -39.63588867 241.77401367 -40.58276367 241.39526367 C-43.05845054 239.93897728 -43.6590137 238.76713861 -44.70776367 236.14526367 C-45.36776367 236.14526367 -46.02776367 236.14526367 -46.70776367 236.14526367 C-51.06095618 225.18947109 -51.28026278 215.21378487 -51.2253418 203.59228516 C-51.23077218 201.64926634 -51.23789995 199.70625164 -51.24658203 197.76324463 C-51.26470811 192.52153626 -51.25779268 187.2801453 -51.24506569 182.03843188 C-51.23488366 176.53343064 -51.24434561 171.02845516 -51.25061035 165.52345276 C-51.25787105 156.28283854 -51.24833989 147.04235253 -51.22924805 137.80175781 C-51.20747597 127.14126613 -51.21453959 116.48108045 -51.23655367 105.82059616 C-51.25474498 96.64142737 -51.25724796 87.46235033 -51.24679899 78.28316933 C-51.24058539 72.81228344 -51.2396696 67.34154108 -51.25294495 61.8706646 C-51.26455748 56.72650808 -51.25637946 51.58274362 -51.23336792 46.43862915 C-51.22810987 44.55858573 -51.2295444 42.67850891 -51.23841858 40.79847908 C-51.28233844 30.54309622 -50.92991868 21.71573201 -46.70776367 12.14526367 C-46.04776367 12.14526367 -45.38776367 12.14526367 -44.70776367 12.14526367 C-44.46026367 11.52651367 -44.21276367 10.90776367 -43.95776367 10.27026367 C-42.50147728 7.7945768 -41.32963861 7.19401365 -38.70776367 6.14526367 C-38.70776367 5.48526367 -38.70776367 4.82526367 -38.70776367 4.14526367 C-26.35378516 -0.81504588 -13.09550407 -0.00449394 0 0 Z " fill="#252320" transform="translate(71.707763671875,24.854736328125)"/>
<path d="M0 0 C0.83423555 -0.00779995 1.66847111 -0.01559991 2.52798653 -0.02363622 C5.30410969 -0.04347007 8.07884882 -0.02782595 10.85498047 -0.01205444 C12.8530151 -0.0188344 14.85104347 -0.02773965 16.84906006 -0.03860474 C22.26233044 -0.0613595 27.67512328 -0.05257735 33.08840179 -0.03670931 C38.75946824 -0.02403061 44.43049441 -0.0357959 50.1015625 -0.04364014 C59.6242607 -0.05273093 69.14676487 -0.04076363 78.66943359 -0.01693726 C89.67134463 0.01027279 100.67279234 0.00145823 111.67469215 -0.02606928 C121.12886833 -0.04877548 130.5829052 -0.051953 140.03709984 -0.03887594 C145.68010424 -0.03108979 151.32289102 -0.03001698 156.96588135 -0.04655838 C162.27172736 -0.06102572 167.57697732 -0.0509396 172.88275909 -0.0220871 C174.82736472 -0.01548844 176.7720207 -0.01735302 178.71660614 -0.02840042 C181.37652139 -0.04211592 184.03454069 -0.02486861 186.69433594 0 C187.84182658 -0.01673041 187.84182658 -0.01673041 189.01249886 -0.03379881 C194.84376251 0.07156638 198.81933121 1.98729842 203.34716797 5.63491821 C209.7608768 12.32274576 208.99639017 20.36723518 208.83544922 29.07241821 C208.8261092 30.56312874 208.81899871 32.05385474 208.81401062 33.54458618 C208.79503373 37.44446114 208.7460164 41.34338644 208.69049072 45.2428894 C208.63909493 49.23150795 208.6164535 53.22028184 208.59130859 57.20913696 C208.53788558 65.01821122 208.45002942 72.82630999 208.34716797 80.63491821 C200.09716797 80.63491821 191.84716797 80.63491821 183.34716797 80.63491821 C184.33716797 86.57491821 184.33716797 86.57491821 185.34716797 92.63491821 C183.14477255 94.83731363 178.47597863 94.60698957 175.42138672 95.04507446 C174.52225052 95.17683578 173.62311432 95.30859711 172.69673157 95.4443512 C170.78956808 95.72285226 168.8821017 95.99928558 166.97436523 96.27383423 C164.05681727 96.6942267 161.14043259 97.12205725 158.22412109 97.55093384 C156.37327451 97.82026026 154.52236499 98.08915456 152.67138672 98.35757446 C151.79834396 98.48568008 150.92530121 98.61378571 150.02580261 98.74577332 C149.2084816 98.86267014 148.39116058 98.97956696 147.54907227 99.1000061 C146.83261032 99.20357925 146.11614838 99.3071524 145.37797546 99.41386414 C143.34716797 99.63491821 143.34716797 99.63491821 139.34716797 99.63491821 C138.53069758 96.47109546 138.15477718 93.32715894 137.97216797 90.07241821 C137.92318359 89.32862915 137.87419922 88.58484009 137.82373047 87.81851196 C138.34716797 85.63491821 138.34716797 85.63491821 143.34716797 81.63491821 C61.67216797 81.13991821 61.67216797 81.13991821 -21.65283203 80.63491821 C-21.65283203 13.63491821 -21.65283203 13.63491821 -16.65283203 5.63491821 C-11.748829 0.93731461 -6.58602513 -0.09602424 0 0 Z " fill="#FB7422" transform="translate(51.65283203125,29.365081787109375)"/>
<path d="M0 0 C75.9 0 151.8 0 230 0 C230 66 230 66 226 74 C220.49414992 79.36467444 215.26405355 80.29767252 207.78385925 80.26742554 C206.96035408 80.27195665 206.1368489 80.27648776 205.28838903 80.28115618 C202.530988 80.29380894 199.77378426 80.29217924 197.01635742 80.29052734 C195.038475 80.29651206 193.06059491 80.30331748 191.0827179 80.31088257 C185.71073484 80.32855594 180.33881549 80.33323853 174.96680617 80.33451414 C170.48128502 80.33641354 165.9957787 80.34377158 161.51026326 80.35085833 C150.92634951 80.36714512 140.34246977 80.37202703 129.75854492 80.37060547 C118.84368177 80.36940408 107.92901636 80.39050486 97.01420325 80.4220928 C87.64079712 80.44825235 78.26745558 80.45897289 68.89401323 80.45769465 C63.29680164 80.45718491 57.69976576 80.46287507 52.10259056 80.48405075 C46.837112 80.50342749 41.57197686 80.5035613 36.30648613 80.48901749 C34.3763809 80.48692757 32.44625421 80.49164114 30.51618576 80.5037384 C27.87608574 80.51921127 25.23716688 80.50986959 22.59709167 80.49447632 C21.83783345 80.50476344 21.07857522 80.51505057 20.29630917 80.52564943 C14.79855401 80.45507475 10.61494288 79.01029983 6 76 C-11.66983432 57.86517004 0 11.83377168 0 0 Z " fill="#FA923D" transform="translate(30,180)"/>
<path d="M0 0 C1.75741649 -0.00299811 3.51483232 -0.00640213 5.27224731 -0.01017761 C10.01426602 -0.01895576 14.75626664 -0.02135311 19.49829268 -0.0219934 C22.4701142 -0.02270746 25.44193121 -0.02484849 28.4137516 -0.02749062 C38.80757562 -0.03672381 49.20138686 -0.04082808 59.59521484 -0.04003906 C69.24155865 -0.03943893 78.88784642 -0.04998344 88.53417605 -0.06578273 C96.85139036 -0.07891344 105.16858648 -0.08422064 113.48581105 -0.08358365 C118.43760963 -0.08333028 123.38935834 -0.08609208 128.34114647 -0.0967617 C133.00421697 -0.10653628 137.66719088 -0.10645866 142.33026505 -0.09924507 C144.02760906 -0.09821073 145.72495939 -0.10049238 147.42229271 -0.10660553 C155.88028955 -0.13506009 164.22622753 0.08109426 172.6386261 1.01591492 C173.338583 1.09082777 174.03853991 1.16574062 174.75970763 1.24292356 C181.76247763 2.11444549 185.79873627 4.58437172 190.60473633 9.52026367 C195.36471802 16.92467963 196.44253785 23.66040697 196.43267822 32.27201843 C196.43564934 33.08594537 196.43862047 33.89987231 196.44168162 34.7384637 C196.45034729 37.46351099 196.45187507 40.18851424 196.45336914 42.91357422 C196.45799885 44.86850579 196.46302372 46.82343646 196.46841431 48.77836609 C196.48152622 54.08848911 196.487981 59.3985995 196.49242496 64.70873618 C196.49535785 68.02804785 196.49946309 71.34735609 196.50392914 74.66666603 C196.51760135 85.05706347 196.52726916 95.44745304 196.53113103 105.83785886 C196.53561018 117.82251585 196.55315265 129.8070587 196.58213162 141.79168099 C196.60376623 151.06150282 196.61383627 160.33129257 196.61517215 169.60113937 C196.61621896 175.13467252 196.62210055 180.66809833 196.63999176 186.20160484 C196.65650298 191.40958184 196.65861309 196.61737117 196.64985275 201.82536507 C196.64908399 203.73205443 196.65340374 205.63875401 196.663311 207.54541779 C196.77549611 230.4894446 196.77549611 230.4894446 189.29223633 240.14526367 C188.63223633 240.80526367 187.97223633 241.46526367 187.29223633 242.14526367 C186.30223633 242.14526367 185.31223633 242.14526367 184.29223633 242.14526367 C184.29223633 242.80526367 184.29223633 243.46526367 184.29223633 244.14526367 C171.60150951 249.09249616 158.01330215 248.29237845 144.59106445 248.2746582 C142.84671492 248.27601626 141.10236568 248.27779846 139.35801697 248.27996826 C134.65764336 248.28449445 129.95729191 248.28277299 125.25691795 248.27958918 C120.31560587 248.27704055 115.37429556 248.27941005 110.4329834 248.28097534 C102.13818016 248.28278976 93.84338586 248.28040984 85.54858398 248.27563477 C75.98679339 248.27019355 66.42502412 248.27195673 56.86323404 248.27746117 C48.62334464 248.28201305 40.38346163 248.28263271 32.14357138 248.2800225 C27.23552698 248.27847113 22.32749259 248.27823451 17.41944885 248.28155899 C12.80318272 248.28446796 8.18694384 248.28240692 3.57068062 248.27666473 C1.88617053 248.27535326 0.20165811 248.27570348 -1.48285103 248.2779274 C-28.02504709 248.30971251 -28.02504709 248.30971251 -38.70776367 244.14526367 C-38.70776367 243.48526367 -38.70776367 242.82526367 -38.70776367 242.14526367 C-39.63588867 241.77401367 -39.63588867 241.77401367 -40.58276367 241.39526367 C-43.05845054 239.93897728 -43.6590137 238.76713861 -44.70776367 236.14526367 C-45.36776367 236.14526367 -46.02776367 236.14526367 -46.70776367 236.14526367 C-51.06095618 225.18947109 -51.28026278 215.21378487 -51.2253418 203.59228516 C-51.23077218 201.64926634 -51.23789995 199.70625164 -51.24658203 197.76324463 C-51.26470811 192.52153626 -51.25779268 187.2801453 -51.24506569 182.03843188 C-51.23488366 176.53343064 -51.24434561 171.02845516 -51.25061035 165.52345276 C-51.25787105 156.28283854 -51.24833989 147.04235253 -51.22924805 137.80175781 C-51.20747597 127.14126613 -51.21453959 116.48108045 -51.23655367 105.82059616 C-51.25474498 96.64142737 -51.25724796 87.46235033 -51.24679899 78.28316933 C-51.24058539 72.81228344 -51.2396696 67.34154108 -51.25294495 61.8706646 C-51.26455748 56.72650808 -51.25637946 51.58274362 -51.23336792 46.43862915 C-51.22810987 44.55858573 -51.2295444 42.67850891 -51.23841858 40.79847908 C-51.28233844 30.54309622 -50.92991868 21.71573201 -46.70776367 12.14526367 C-46.04776367 12.14526367 -45.38776367 12.14526367 -44.70776367 12.14526367 C-44.46026367 11.52651367 -44.21276367 10.90776367 -43.95776367 10.27026367 C-42.50147728 7.7945768 -41.32963861 7.19401365 -38.70776367 6.14526367 C-38.70776367 5.48526367 -38.70776367 4.82526367 -38.70776367 4.14526367 C-26.35378516 -0.81504588 -13.09550407 -0.00449394 0 0 Z M-38.58276367 11.70776367 C-38.95401367 12.51213867 -39.32526367 13.31651367 -39.70776367 14.14526367 C-40.05545115 14.68777645 -40.40313862 15.23028923 -40.76136208 15.78924179 C-42.14541834 19.23478422 -41.98984682 22.62203089 -41.97518921 26.27911377 C-41.97972032 27.10584807 -41.98425143 27.93258237 -41.98891985 28.78436923 C-42.00159486 31.55869532 -41.99994148 34.33282587 -41.99829102 37.10717773 C-42.00427441 39.09476474 -42.01107951 41.08234942 -42.01864624 43.06993103 C-42.03633461 48.47296396 -42.04100287 53.87593357 -42.04227781 59.27899265 C-42.0441761 63.78931688 -42.05153299 68.29962633 -42.058622 72.80994487 C-42.07491502 83.45281264 -42.07979019 94.09564658 -42.07836914 104.73852539 C-42.07716806 115.71528331 -42.09826117 126.6918445 -42.12985647 137.66855264 C-42.15601629 147.09289355 -42.16673653 156.51717021 -42.16545832 165.94154716 C-42.16494852 171.57007238 -42.17064158 177.19842288 -42.19181442 182.82691193 C-42.21119124 188.12274531 -42.2113249 193.41823723 -42.19678116 198.71408272 C-42.19469115 200.65547497 -42.19940537 202.59688856 -42.21150208 204.53824425 C-42.2269738 207.19372222 -42.21763391 209.84802572 -42.20223999 212.503479 C-42.21252712 213.2673103 -42.22281424 214.03114159 -42.2334131 214.81811929 C-42.15395618 221.04321988 -40.33288054 226.48627433 -35.89135742 230.98510742 C-35.31514648 231.34733398 -34.73893555 231.70956055 -34.14526367 232.08276367 C-33.56647461 232.46303711 -32.98768555 232.84331055 -32.39135742 233.23510742 C-28.25931972 235.46890043 -24.28943308 235.29352334 -19.73213196 235.29243469 C-18.49943747 235.29794972 -18.49943747 235.29794972 -17.24184006 235.30357617 C-14.47827773 235.31462062 -11.71475299 235.31845815 -8.95117188 235.32226562 C-6.97358582 235.32852972 -4.99600094 235.33517647 -3.01841736 235.34217834 C2.36193175 235.35959343 7.74227197 235.3701416 13.12264228 235.37838387 C16.48380484 235.3835332 19.84496464 235.38960898 23.20612526 235.395895 C33.7214643 235.41494894 44.2367963 235.42917937 54.75214928 235.43750697 C66.89196034 235.44727962 79.03158907 235.47359913 91.17133588 235.51400787 C100.55318631 235.54416528 109.93498447 235.55897552 119.31688243 235.56228799 C124.92084227 235.56463897 130.52460738 235.57360583 136.12851524 235.59874916 C141.40215961 235.62202807 146.67548101 235.62626372 151.94916344 235.61598778 C153.88249791 235.61549226 155.81584826 235.62181738 157.74913406 235.63554382 C160.3937039 235.65326656 163.03711512 235.64615493 165.6816864 235.63301086 C166.44230887 235.64398011 167.20293133 235.65494936 167.98660296 235.666251 C173.48962371 235.60045856 177.67340796 234.15959761 182.29223633 231.14526367 C187.6807415 225.61495573 188.58948258 220.37552198 188.53947449 212.86424255 C188.54309611 211.61862607 188.54309611 211.61862607 188.5467909 210.34784561 C188.55242345 207.56726612 188.54376811 204.78691681 188.53515625 202.00634766 C188.53622924 200.01212502 188.53816816 198.01790268 188.54090881 196.02368164 C188.54575735 190.60856181 188.53810149 185.19352436 188.52795577 179.77841449 C188.51917593 174.11481491 188.5209327 168.45121791 188.52131653 162.78761292 C188.52037989 153.27733989 188.51169565 143.76709877 188.49804688 134.25683594 C188.48231687 123.25562596 188.47704893 112.25445092 188.47778243 101.25323051 C188.47839243 90.67649121 188.47328984 80.0997633 188.46499062 69.52302742 C188.46145676 65.01872735 188.45962722 60.51443132 188.45909691 56.01012993 C188.45809358 50.70864709 188.45199769 45.40719366 188.44193077 40.10572052 C188.43900603 38.15781649 188.43778035 36.20990908 188.43835831 34.26200294 C188.43884789 31.60773758 188.43320415 28.953555 188.4259491 26.29930115 C188.428272 25.13710034 188.428272 25.13710034 188.43064183 23.95142072 C188.41521957 20.54593633 188.36586755 17.39988292 187.29223633 14.14526367 C186.63223633 14.14526367 185.97223633 14.14526367 185.29223633 14.14526367 C185.23036133 13.56776367 185.16848633 12.99026367 185.10473633 12.39526367 C183.7729309 8.7071871 180.80213851 7.14752153 177.63500595 5.04521084 C174.1794978 3.71781836 170.77053277 3.85975849 167.12042236 3.87110901 C166.28960451 3.86587233 165.45878665 3.86063565 164.6027925 3.85524029 C161.81465496 3.84022057 159.02670063 3.8395347 156.23852539 3.83886719 C154.24108571 3.83124696 152.24364896 3.8228197 150.24621582 3.81364441 C144.816331 3.79167739 139.3865025 3.78289738 133.95657825 3.77781796 C130.56408074 3.7741766 127.17159802 3.76793764 123.77910614 3.76081657 C111.94330699 3.73631315 100.10755173 3.72326852 88.27172852 3.71972656 C77.24040005 3.71609196 66.20934994 3.68620414 55.17810655 3.64432198 C45.70705659 3.60962445 36.23609889 3.5941782 26.7649858 3.59348053 C21.10846885 3.59268745 15.45223527 3.58393455 9.795784 3.55548286 C4.4736344 3.52931212 -0.84799672 3.52709173 -6.17018127 3.5431385 C-8.12125529 3.54495385 -10.07235905 3.53825462 -12.02336884 3.52231979 C-14.6921961 3.50185497 -17.35921006 3.51241282 -20.02801514 3.53053284 C-20.79573738 3.51733287 -21.56345962 3.5041329 -22.35444617 3.49053293 C-29.1015097 3.59479083 -34.55588662 6.20436504 -38.58276367 11.70776367 Z " fill="#000000" transform="translate(71.707763671875,24.854736328125)"/>
<path d="M0 0 C1.50790417 3.01580834 1.68886362 6.25462057 2.125 9.5625 C2.22425781 10.26052734 2.32351562 10.95855469 2.42578125 11.67773438 C2.66251097 13.44634557 2.83636893 15.22313439 3 17 C0.79760458 19.20239542 -3.87118934 18.97207136 -6.92578125 19.41015625 C-7.82491745 19.54191757 -8.72405365 19.67367889 -9.6504364 19.80943298 C-11.55759988 20.08793405 -13.46506627 20.36436737 -15.37280273 20.63891602 C-18.2903507 21.05930848 -21.20673538 21.48713903 -24.12304688 21.91601562 C-25.97389346 22.18534205 -27.82480298 22.45423635 -29.67578125 22.72265625 C-30.54882401 22.85076187 -31.42186676 22.97886749 -32.32136536 23.1108551 C-33.13868637 23.22775192 -33.95600739 23.34464874 -34.7980957 23.46508789 C-35.51455765 23.56866104 -36.23101959 23.67223419 -36.9691925 23.77894592 C-39 24 -39 24 -43 24 C-43.80854178 20.86690059 -44.21692684 17.72252003 -44.4375 14.5 C-44.49808594 13.7678125 -44.55867187 13.035625 -44.62109375 12.28125 C-43.84825126 9.44263356 -42.56393156 7.87687253 -40.2355957 6.09765625 C-35.05181103 3.55246723 -29.05047132 3.37014906 -23.375 2.75 C-22.03882551 2.59051483 -20.70288305 2.42907282 -19.3671875 2.265625 C-16.91970149 1.9671511 -14.4710429 1.67803496 -12.02099609 1.40136719 C-1.21848011 -0.03384667 -1.21848011 -0.03384667 0 0 Z " fill="#EC6A2C" transform="translate(234,105)"/>
<path d="M0 0 C1.98 0 3.96 0 6 0 C6 11.88 6 23.76 6 36 C4.35 36 2.7 36 1 36 C0.67 35.01 0.34 34.02 0 33 C-0.639375 33.495 -1.27875 33.99 -1.9375 34.5 C-6.06473076 36.52150078 -9.48064366 36.71735815 -14 36 C-18.38253554 33.80873223 -21.16669816 31.58325461 -23 27 C-23.715328 22.23114667 -23.48847963 18.94206786 -21.25 14.625 C-17.1907296 9.88918454 -14.45797603 8.46078137 -8.26171875 7.91796875 C-4.99312244 8.03651888 -2.71613619 9.25888706 0 11 C0 7.37 0 3.74 0 0 Z " fill="#EEEEEE" transform="translate(171,126)"/>
<path d="M0 0 C4.29900138 2.33204061 7.20070863 5.4372037 9 10 C9.32794891 14.62492058 8.62984822 18.74002926 5.75 22.4375 C1.17877743 26.6970483 -2.67345299 27.47504112 -8.7890625 27.3125 C-13.59838138 26.63273761 -16.25746411 23.79965403 -19.4375 20.375 C-21.64121185 15.6149824 -21.69697244 11.96579494 -20 7 C-15.21906033 -0.29449603 -8.25626324 -1.8233997 0 0 Z " fill="#EFEFEF" transform="translate(227,135)"/>
<path d="M0 0 C0.80898994 -0.00226556 1.61797989 -0.00453111 2.45148468 -0.00686532 C5.17144687 -0.01321262 7.89135933 -0.0123755 10.61132812 -0.0115509 C12.55761785 -0.0145419 14.50390697 -0.01794428 16.45019531 -0.02172852 C21.74344188 -0.03057772 27.03667229 -0.03290699 32.32992554 -0.0335443 C36.74373801 -0.03449255 41.1575467 -0.03816979 45.57135773 -0.0417164 C55.98051647 -0.04986407 66.38966656 -0.05230031 76.79882812 -0.05158997 C87.55009265 -0.05098873 98.30130706 -0.06154891 109.0525589 -0.07733363 C118.27297452 -0.0903903 127.49337372 -0.09577467 136.71379852 -0.09513456 C142.22531392 -0.09487906 147.73678479 -0.09775854 153.24829102 -0.10831261 C158.42910528 -0.1179624 163.60983215 -0.1180943 168.79064941 -0.11079597 C170.69543586 -0.10974631 172.60022766 -0.11213548 174.50500488 -0.11815643 C177.09849291 -0.12582549 179.69167524 -0.12126559 182.28515625 -0.11352539 C183.04477913 -0.11866895 183.80440201 -0.12381252 184.58704376 -0.12911195 C188.32439474 -0.10434049 189.94940658 0.00493174 193.14257812 2.13371277 C189.47538225 3.35611139 186.10324844 3.27520927 182.28515625 3.26742554 C181.07167133 3.27082387 181.07167133 3.27082387 179.83367157 3.27429086 C177.11370938 3.28063815 174.39379692 3.27980103 171.67382812 3.27897644 C169.7275384 3.28196743 167.78124928 3.28536982 165.83496094 3.28915405 C160.54171437 3.29800326 155.24848396 3.30033252 149.95523071 3.30096984 C145.54141824 3.30191809 141.12760955 3.30559532 136.71379852 3.30914193 C126.30463978 3.31728961 115.89548969 3.31972584 105.48632812 3.3190155 C94.7350636 3.31841427 83.98384919 3.32897445 73.23259735 3.34475917 C64.01218173 3.35781584 54.79178253 3.36320021 45.57135773 3.36256009 C40.05984233 3.3623046 34.54837146 3.36518407 29.03686523 3.37573814 C23.85605097 3.38538794 18.6753241 3.38551984 13.49450684 3.37822151 C11.58972039 3.37717185 9.68492859 3.37956102 7.78015137 3.38558197 C5.18666334 3.39325103 2.59348101 3.38869112 0 3.38095093 C-0.75962288 3.38609449 -1.51924576 3.39123805 -2.30188751 3.39653748 C-6.03923849 3.37176602 -7.66425033 3.2624938 -10.85742188 1.13371277 C-7.190226 -0.08868586 -3.81809219 -0.00778374 0 0 Z " fill="#140604" transform="translate(53.857421875,26.866287231445313)"/>
<path d="M0 0 C3.3076344 2.1289811 6.22312783 4.44625567 8 8 C8 10.64 8 13.28 8 16 C0.74 16 -6.52 16 -14 16 C-10.7930627 21.07559225 -10.7930627 21.07559225 -7.67578125 21.5234375 C-6.89589844 21.47445312 -6.11601563 21.42546875 -5.3125 21.375 C-4.52488281 21.34148437 -3.73726562 21.30796875 -2.92578125 21.2734375 C-0.9958702 21.19609734 -0.9958702 21.19609734 0 20 C1.99958364 19.95919217 4.00045254 19.95745644 6 20 C4.96008872 23.01574271 4.03085171 23.97991051 1.3125 25.75 C-3.64179045 27.61954357 -7.2206278 27.66290337 -12.1875 25.8125 C-15.94537374 23.39075914 -18.32338429 21.32231973 -19.60546875 16.921875 C-20.43556465 12.08923747 -20.15157141 8.60567111 -17.35546875 4.51171875 C-12.51400024 -0.88784411 -6.90779234 -2.34719 0 0 Z " fill="#EDEDEC" transform="translate(109,135)"/>
<path d="M0 0 C1.32 0 2.64 0 4 0 C4.33 0.66 4.66 1.32 5 2 C5.66 1.34 6.32 0.68 7 0 C10.71184809 -0.56783505 14.28629102 -0.54124763 18 0 C20.89683868 2.2015974 22.39297231 3.78594462 24 7 C24.08372659 8.52148326 24.10730027 10.04655778 24.09765625 11.5703125 C24.09443359 12.46621094 24.09121094 13.36210937 24.08789062 14.28515625 C24.07951172 15.22230469 24.07113281 16.15945312 24.0625 17.125 C24.05798828 18.06988281 24.05347656 19.01476562 24.04882812 19.98828125 C24.03702357 22.32558387 24.02055759 24.66276061 24 27 C22.35 27 20.7 27 19 27 C18.96261719 25.74703125 18.92523438 24.4940625 18.88671875 23.203125 C18.82105115 21.55205379 18.75460407 19.90101345 18.6875 18.25 C18.66494141 17.425 18.64238281 16.6 18.61914062 15.75 C18.46110465 12.18700709 18.33543127 9.63122945 16.64453125 6.44921875 C14.98240902 4.71864759 14.98240902 4.71864759 12 4.5625 C8.66505538 5.04884609 7.99444007 5.40291815 6 8 C5.49945249 10.11615844 5.49945249 10.11615844 5.48828125 12.44921875 C5.45283203 13.29677734 5.41738281 14.14433594 5.38085938 15.01757812 C5.35830078 15.89865234 5.33574219 16.77972656 5.3125 17.6875 C5.27833984 18.58017578 5.24417969 19.47285156 5.20898438 20.39257812 C5.12654352 22.59492671 5.05738449 24.79687938 5 27 C3.35 27 1.7 27 0 27 C0 18.09 0 9.18 0 0 Z " fill="#F1F1F1" transform="translate(121,135)"/>
<path d="M0 0 C1.65 0 3.3 0 5 0 C7.64 6.27 10.28 12.54 13 19 C15.26157932 13.12233346 15.26157932 13.12233346 17.51733398 7.24243164 C17.79907471 6.51403076 18.08081543 5.78562988 18.37109375 5.03515625 C18.65911865 4.2862915 18.94714355 3.53742676 19.24389648 2.76586914 C20 1 20 1 21 0 C22.66617115 -0.04063832 24.33388095 -0.042721 26 0 C23.57606156 7.73509365 20.50605264 15.11637146 17.3125 22.5625 C16.80138672 23.76197266 16.29027344 24.96144531 15.76367188 26.19726562 C14.51224198 29.13286285 13.25761707 32.06704935 12 35 C10.02 35 8.04 35 6 35 C6.26659424 34.41081787 6.53318848 33.82163574 6.80786133 33.21459961 C9.34458202 26.62067142 8.87860422 22.85654928 6.06445312 16.44726562 C5.61005859 15.49529297 5.15566406 14.54332031 4.6875 13.5625 C3.81259162 11.62802281 2.94131922 9.69189579 2.07421875 7.75390625 C1.67807373 6.91158447 1.28192871 6.0692627 0.8737793 5.20141602 C0 3 0 3 0 0 Z " fill="#F4F4F4" transform="translate(180,135)"/>
<path d="M0 0 C2.75329021 1.79562405 4.52627461 3.05254922 6 6 C6.25356203 9.88795111 6.32836566 12.78463789 4 16 C1.00595015 18.48078416 -0.58370586 18.99256618 -4.5 19.0625 C-9.03251036 17.68655935 -10.51527166 15.99062431 -13 12 C-13.73490789 7.99883483 -13.38814018 6.58221026 -11.125 3.1875 C-7.57218626 -0.46980826 -5.03088285 -0.426346 0 0 Z " fill="#242422" transform="translate(166,139)"/>
<path d="M0 0 C1.65 0 3.3 0 5 0 C5 2.64 5 5.28 5 8 C7.64 8 10.28 8 13 8 C13 9.65 13 11.3 13 13 C10.36 13 7.72 13 5 13 C5.33 18.28 5.66 23.56 6 29 C8.97 29 11.94 29 15 29 C14.625 31.4375 14.625 31.4375 14 34 C10.89951072 35.55024464 8.42105782 35.28992015 5 35 C2.2890625 33.55859375 2.2890625 33.55859375 0 31 C-0.61318324 27.89498444 -0.47242943 24.89937961 -0.3125 21.75 C-0.27866211 20.48929688 -0.27866211 20.48929688 -0.24414062 19.203125 C-0.18537714 17.13465036 -0.09569885 15.06709512 0 13 C-1.65 13 -3.3 13 -5 13 C-5 11.35 -5 9.7 -5 8 C-3.35 8 -1.7 8 0 8 C0 5.36 0 2.72 0 0 Z " fill="#F6F6F6" transform="translate(51,127)"/>
<path d="M0 0 C4.6 2.2 4.6 2.2 6 5 C6.36104805 9.40478623 6.46851135 11.97779342 4.625 16 C1.14174726 18.65390685 -1.35348776 18.65963937 -5.6484375 18.40625 C-8 18 -8 18 -10.625 16.5625 C-12.69620459 12.70252781 -12.86729051 9.27559008 -12 5 C-8.64770496 0.02234979 -5.86333845 -0.83761978 0 0 Z " fill="#1D1D1B" transform="translate(224,139)"/>
<path d="M0 0 C1 1 1 1 1.0625 4.0625 C1.041875 5.031875 1.02125 6.00125 1 7 C0.34 7 -0.32 7 -1 7 C-1.495 4.03 -1.495 4.03 -2 1 C-2.66 1 -3.32 1 -4 1 C-4.33 3.31 -4.66 5.62 -5 8 C-7 5 -7 5 -8 2 C-8.66 2 -9.32 2 -10 2 C-10.33 5.63 -10.66 9.26 -11 13 C-14.93701847 13.66962197 -18.87456255 14.33582365 -22.8125 15 C-24.49182617 15.28617188 -24.49182617 15.28617188 -26.20507812 15.578125 C-27.27822266 15.75859375 -28.35136719 15.9390625 -29.45703125 16.125 C-30.44678955 16.29257813 -31.43654785 16.46015625 -32.45629883 16.6328125 C-35 17 -35 17 -38 17 C-37.49396008 14.83125748 -37.00016187 13.00032373 -36 11 C-35.01 10.67 -34.02 10.34 -33 10 C-33.04125 9.21625 -33.0825 8.4325 -33.125 7.625 C-33 5 -33 5 -31 3 C-28.375 2.875 -28.375 2.875 -26 3 C-25.67 3.66 -25.34 4.32 -25 5 C-26.65 5 -28.3 5 -30 5 C-30.33 6.32 -30.66 7.64 -31 9 C-27.535 8.505 -27.535 8.505 -24 8 C-23.34 6.02 -22.68 4.04 -22 2 C-19.6875 1.375 -19.6875 1.375 -17 1 C-16.01 1.66 -15.02 2.32 -14 3 C-13.49499757 6.19834873 -13.72668391 7.5786377 -15.5 10.3125 C-15.995 10.869375 -16.49 11.42625 -17 12 C-13.82990528 10.37921338 -13.82990528 10.37921338 -13.48828125 7.8359375 C-13.43027344 7.02382812 -13.37226563 6.21171875 -13.3125 5.375 C-13.24675781 4.55773437 -13.18101562 3.74046875 -13.11328125 2.8984375 C-13.07589844 2.27195312 -13.03851563 1.64546875 -13 1 C-4.41818182 -1.47272727 -4.41818182 -1.47272727 0 0 Z " fill="#F39262" transform="translate(230,112)"/>
<path d="M0 0 C1.65 0 3.3 0 5 0 C5 0.99 5 1.98 5 3 C5.66 3 6.32 3 7 3 C7 2.34 7 1.68 7 1 C10.01868434 -0.50934217 12.67297229 -0.17510672 16 0 C16.99 0.66 17.98 1.32 19 2 C18.67 3.65 18.34 5.3 18 7 C17.38511719 6.88140625 16.77023438 6.7628125 16.13671875 6.640625 C15.32847656 6.51171875 14.52023438 6.3828125 13.6875 6.25 C12.88699219 6.11078125 12.08648437 5.9715625 11.26171875 5.828125 C8.90988498 5.78582231 8.90988498 5.78582231 7.25 7.46875 C5.51309522 10.98598219 5.43148137 14.40180239 5.3125 18.25 C5.27833984 18.99507812 5.24417969 19.74015625 5.20898438 20.5078125 C5.12685946 22.33802492 5.06174347 24.16898669 5 26 C3.35 26 1.7 26 0 26 C0 17.42 0 8.84 0 0 Z " fill="#F7F7F7" transform="translate(70,135)"/>
<path d="M0 0 C1.65 0 3.3 0 5 0 C5 11.55 5 23.1 5 35 C3.35 35 1.7 35 0 35 C0 23.45 0 11.9 0 0 Z " fill="#FCFCFC" transform="translate(240,126)"/>
<path d="M0 0 C2.9375 2.3125 2.9375 2.3125 5 5 C5 5.99 5 6.98 5 8 C-0.61 8 -6.22 8 -12 8 C-11 3 -11 3 -9.375 1.1875 C-5.98279278 -0.50860361 -3.74493155 -0.52560443 0 0 Z " fill="#282826" transform="translate(107,139)"/>
<path d="M0 0 C7.26 0 14.52 0 22 0 C22 0.33 22 0.66 22 1 C17.545 1.495 17.545 1.495 13 2 C13.66 2.66 14.32 3.32 15 4 C12.60713116 6.39286884 11.90552906 6.32050616 8.625 6.375 C5.23342779 6.30946237 4.26087637 6.19088515 1.4375 4.125 C0 2 0 2 0 0 Z " fill="#161615" transform="translate(95,151)"/>
<path d="M0 0 C2.375 0.6875 2.375 0.6875 3.375 1.6875 C3.5625 4.125 3.5625 4.125 3.375 6.6875 C1.375 8.6875 1.375 8.6875 -1.125 8.9375 C-3.625 8.6875 -3.625 8.6875 -5.625 6.6875 C-5.9375 4.1875 -5.9375 4.1875 -5.625 1.6875 C-2.625 -0.3125 -2.625 -0.3125 0 0 Z " fill="#FDEADF" transform="translate(212.625,113.3125)"/>
<path d="M0 0 C1 1 1 1 1.0625 4.0625 C1.041875 5.031875 1.02125 6.00125 1 7 C0.34 7 -0.32 7 -1 7 C-1.33 5.02 -1.66 3.04 -2 1 C-2.66 1 -3.32 1 -4 1 C-4.33 3.31 -4.66 5.62 -5 8 C-7 5 -7 5 -8 2 C-8.66 2 -9.32 2 -10 2 C-10.33 4.31 -10.66 6.62 -11 9 C-12.76462683 5.91190305 -13 4.76687864 -13 1 C-4.41818182 -1.47272727 -4.41818182 -1.47272727 0 0 Z " fill="#FDEBE0" transform="translate(230,112)"/>
<path d="M0 0 C0.99 0.66 1.98 1.32 3 2 C3 2.99 3 3.98 3 5 C-2.61 5 -8.22 5 -14 5 C-14 4.34 -14 3.68 -14 3 C-9.38 2.67 -4.76 2.34 0 2 C0 1.34 0 0.68 0 0 Z " fill="#3B3B38" transform="translate(109,142)"/>
<path d="M0 0 C1.67542976 0.28604898 3.34385343 0.61781233 5 1 C4.67 2.65 4.34 4.3 4 6 C2.68 5.67 1.36 5.34 0 5 C-0.5625 3.0625 -0.5625 3.0625 -1 1 C-0.67 0.67 -0.34 0.34 0 0 Z " fill="#E96B2E" transform="translate(209,115)"/>
<path d="M0 0 C0.33 0 0.66 0 1 0 C1.33 2.64 1.66 5.28 2 8 C-1.67410785 9.17571451 -5.16929183 9.07366746 -9 9 C-9 8.67 -9 8.34 -9 8 C-7.88625 7.79375 -6.7725 7.5875 -5.625 7.375 C-1.73400805 6.38371699 -1.73400805 6.38371699 -0.5625 2.875 C-0.376875 1.92625 -0.19125 0.9775 0 0 Z " fill="#F37336" transform="translate(217,117)"/>
<path d="M0 0 C1.3609623 2.7219246 0.70366248 4.1831957 0.0625 7.125 C-0.13214844 8.03507813 -0.32679688 8.94515625 -0.52734375 9.8828125 C-0.68332031 10.58148438 -0.83929688 11.28015625 -1 12 C-1.33 12 -1.66 12 -2 12 C-2.144375 10.906875 -2.28875 9.81375 -2.4375 8.6875 C-2.88288104 5.06877013 -2.88288104 5.06877013 -4 2 C-2.68 1.34 -1.36 0.68 0 0 Z " fill="#141413" transform="translate(207,140)"/>
<path d="M0 0 C0.99 0.66 1.98 1.32 3 2 C0.03 4.475 0.03 4.475 -3 7 C-3.33 6.01 -3.66 5.02 -4 4 C-2.68 2.68 -1.36 1.36 0 0 Z " fill="#EF7933" transform="translate(37,33)"/>
<path d="M0 0 C0.99 0.33 1.98 0.66 3 1 C3 3.64 3 6.28 3 9 C1.02 9.99 1.02 9.99 -1 11 C-0.67 10.443125 -0.34 9.88625 0 9.3125 C1.14560151 6.6632965 1.22572784 4.8592193 1 2 C0.67 1.34 0.34 0.68 0 0 Z " fill="#E45F1F" transform="translate(214,113)"/>
</svg>
