<svg xmlns="http://www.w3.org/2000/svg" width="934" height="251" viewBox="0 0 934 251" version="1.1">
	<path d="M 105.900 59.307 C 47.366 118.559, 22.187 144.415, 25 142.383 C 28.208 140.065, 71.320 107.855, 108.470 80.020 C 129.904 63.960, 147.547 51.199, 147.677 51.660 C 147.808 52.122, 152.269 75, 157.592 102.500 C 162.914 130, 167.624 152.893, 168.057 153.373 C 168.720 154.107, 196.190 160.149, 196.657 159.664 C 196.744 159.574, 190.157 126.200, 182.020 85.500 C 173.883 44.800, 166.907 9.138, 166.519 6.251 C 166.130 3.364, 165.489 0.802, 165.094 0.558 C 164.699 0.314, 138.062 26.751, 105.900 59.307 M 176.430 16 C 176.674 17.375, 183.277 52.362, 191.105 93.748 C 198.932 135.135, 205.149 169.184, 204.918 169.412 C 204.688 169.641, 179.300 165.148, 148.500 159.429 C 117.700 153.709, 91.494 149.022, 90.264 149.014 C 87.405 148.996, 59.123 169.749, 61.089 170.423 C 61.865 170.688, 103.112 179.394, 152.750 189.768 C 207.839 201.282, 243 208.201, 243 207.527 C 243 206.531, 178.222 18.566, 176.649 15 C 176.286 14.175, 176.187 14.625, 176.430 16 M 71.843 115.386 C 32.982 143.499, 1.234 166.950, 1.292 167.500 C 1.395 168.476, 210.226 250.042, 212.402 249.957 C 213.006 249.933, 220.867 242.832, 229.870 234.176 L 246.241 218.438 146.370 197.664 C 91.442 186.239, 45.683 176.569, 44.685 176.177 C 43.051 175.534, 70.072 154.835, 148.808 96.414 C 150.078 95.472, 149.928 93.820, 147.673 83.914 C 146.244 77.636, 144.782 70.808, 144.424 68.739 C 144.066 66.670, 143.487 64.819, 143.137 64.625 C 142.786 64.431, 110.704 87.274, 71.843 115.386 M 288 124.986 L 288 158.198 305.250 157.836 C 321.272 157.499, 322.892 157.291, 328.006 154.904 C 334.720 151.770, 339.228 147.409, 342.763 140.628 C 345.131 136.086, 345.440 134.358, 345.468 125.500 C 345.506 113.602, 343.397 107.763, 336.692 101.199 C 329.189 93.855, 325.016 92.658, 305.250 92.186 L 288 91.773 288 124.986 M 367.992 94.522 C 367.448 95.953, 362.437 110.259, 356.857 126.312 C 351.277 142.365, 346.496 156.080, 346.234 156.789 C 345.861 157.796, 347.803 158.015, 355.101 157.789 L 364.446 157.500 366.310 151.250 L 368.174 145 376.894 145 L 385.615 145 387.612 151.250 L 389.609 157.500 398.804 157.788 C 403.862 157.946, 407.986 157.946, 407.968 157.788 C 407.951 157.629, 402.856 142.875, 396.645 125 L 385.354 92.500 377.168 92.209 C 369.156 91.925, 368.960 91.974, 367.992 94.522 M 443.500 93.149 C 439.081 94.779, 434.205 98.703, 432.499 102.002 C 430.535 105.799, 430.536 115.892, 432.499 118.695 C 435.038 122.320, 440.061 124.729, 451 127.568 C 468.101 132.006, 471 134.095, 471 141.980 C 471 148.868, 464.779 152.980, 454.339 152.994 C 448.723 153.002, 438.697 149.769, 434.568 146.620 L 431.198 144.049 429.586 146.509 C 428.008 148.917, 428.062 149.032, 432.151 151.994 C 437.927 156.178, 444.853 158, 454.985 158 C 462.175 158, 464.440 157.585, 468.618 155.503 C 477.067 151.293, 480.383 141.824, 476.370 133.367 C 474.089 128.561, 468.521 125.689, 454.500 122.086 C 444.515 119.521, 442.038 118.497, 439.750 115.986 C 436.613 112.544, 436.194 108.459, 438.517 103.967 C 442.479 96.306, 458.283 95.010, 468.204 101.533 L 471.909 103.968 473.413 101.821 C 475.339 99.071, 474.935 98.515, 468.679 95.304 C 464.505 93.162, 461.850 92.587, 455 92.344 C 450.325 92.178, 445.150 92.540, 443.500 93.149 M 504.222 95.047 C 497.120 98.596, 492.733 103.211, 489.101 110.954 C 486.889 115.671, 486.506 117.846, 486.538 125.500 C 486.572 133.382, 486.936 135.219, 489.470 140.290 C 495.195 151.746, 504.720 157.941, 516.663 157.978 C 534.405 158.032, 547.401 143.735, 547.276 124.300 C 547.124 100.726, 524.127 85.100, 504.222 95.047 M 559 125 L 559 158 562.500 158 L 566 158 566 142.500 L 566 127 581.500 127 L 597 127 597 124.500 L 597 122 581.500 122 L 566 122 566 110 L 566 98 584 98 L 602 98 602 95 L 602 92 580.500 92 L 559 92 559 125 M 608 95 L 608 98 619.500 98 L 631 98 631 128 L 631 158 634 158 L 637 158 637 128 L 637 98 649 98 L 661 98 661 95 L 661 92 634.500 92 L 608 92 608 95 M 667.988 101.192 C 692.257 159.039, 691.524 157.480, 694.614 157.795 C 697.455 158.085, 697.627 157.807, 704.357 142.045 C 708.125 133.220, 711.346 126, 711.515 126 C 711.684 126, 714.865 133.223, 718.583 142.051 C 725.277 157.942, 725.373 158.098, 728.299 157.801 C 731.175 157.508, 731.613 156.656, 744.602 126.038 C 751.942 108.734, 758.181 93.970, 758.466 93.228 C 758.853 92.221, 758.078 91.959, 755.401 92.190 L 751.818 92.500 740.034 121.357 C 733.553 137.229, 728.021 149.829, 727.741 149.357 C 726.160 146.700, 716 121.888, 716 120.686 C 716 119.896, 718.452 113.344, 721.448 106.125 L 726.896 93 723.698 93.006 C 720.558 93.013, 720.421 93.214, 716.138 104.061 C 713.738 110.137, 711.500 114.833, 711.164 114.497 C 710.827 114.160, 708.718 109.299, 706.477 103.693 C 702.607 94.013, 702.243 93.484, 699.257 93.191 L 696.112 92.882 701.556 106.046 C 704.550 113.286, 707 119.834, 707 120.597 C 707 122.530, 695.830 149, 695.015 149 C 694.649 149, 689.141 136.287, 682.774 120.750 L 671.198 92.500 667.641 92.192 L 664.083 91.884 667.988 101.192 M 782.192 93.690 C 781.674 94.686, 775.521 109.225, 768.518 126 C 761.516 142.775, 755.565 156.867, 755.293 157.316 C 755.022 157.765, 756.463 157.990, 758.496 157.816 C 762.166 157.502, 762.223 157.428, 766.384 147.500 L 770.576 137.500 785.384 137.500 L 800.192 137.500 804.346 147.738 C 808.438 157.823, 808.550 157.977, 811.817 157.988 C 814.649 157.998, 815.044 157.716, 814.518 156.058 C 814.179 154.990, 808.121 140.253, 801.056 123.308 C 789.295 95.102, 787.996 92.474, 785.672 92.190 C 784.013 91.987, 782.808 92.507, 782.192 93.690 M 825 124.916 L 825 158 828.500 158 L 832 158 832 146 L 832 134 841.756 134 L 851.512 134 859.006 145.958 C 866.397 157.752, 866.552 157.916, 870.263 157.958 L 874.025 158 871.350 153.750 C 869.878 151.412, 866.272 145.772, 863.337 141.215 C 860.402 136.659, 858 132.770, 858 132.574 C 858 132.377, 859.052 131.953, 860.338 131.630 C 867.282 129.887, 872 122.244, 872 112.736 C 872 107.464, 871.513 105.624, 869.121 101.852 C 867.538 99.356, 864.500 96.230, 862.371 94.907 C 858.755 92.659, 857.397 92.478, 841.750 92.166 L 825 91.831 825 124.916 M 885 125 L 885 158 907 158 L 929 158 929 155 L 929 152 910.500 152 L 892 152 892 139.500 L 892 127 908 127 L 924 127 924 124.500 L 924 122 908 122 L 892 122 892 110 L 892 98 910.500 98 L 929 98 929 95 L 929 92 907 92 L 885 92 885 125 M 507.500 99.655 C 502.620 102.216, 497.263 107.960, 495.152 112.893 C 491.832 120.649, 491.510 126.027, 493.893 133.874 C 499.916 153.704, 521.396 159.038, 534.338 143.918 C 545.865 130.451, 541.843 107.428, 526.682 100.088 C 521.426 97.544, 511.930 97.330, 507.500 99.655 M 832 112.921 L 832 128 844.618 128 L 857.235 128 861.035 124.201 C 867.410 117.826, 867.608 108.818, 861.519 102.169 L 858.159 98.500 845.079 98.171 L 832 97.841 832 112.921 M 778.739 115.717 L 772.210 131.500 784.741 131.781 C 791.633 131.935, 797.464 131.870, 797.698 131.635 C 798.039 131.294, 786.383 101.260, 785.505 100.217 C 785.374 100.061, 782.329 107.036, 778.739 115.717 M 306 125 L 306 142 311.750 141.996 C 322.373 141.989, 327.406 136.546, 327.466 125 C 327.525 113.714, 322.078 108.005, 311.250 108.002 L 306 108 306 125 M 373.804 123.223 C 372.321 128.293, 371.258 132.591, 371.441 132.774 C 371.624 132.957, 374.221 132.970, 377.213 132.803 L 382.652 132.500 380.095 123.250 C 378.689 118.162, 377.304 114.001, 377.019 114.002 C 376.733 114.003, 375.287 118.153, 373.804 123.223" stroke="none" fill="#ffff" fill-rule="evenodd"/>
</svg>